<svg width="32" height="32" viewBox="0 0 32 32" fill="none" xmlns="http://www.w3.org/2000/svg">
<path d="M15.1845 21.1519C15.1845 19.9679 14.8645 18.9439 14.2085 18.1119C13.2165 16.8639 11.2805 16.7039 10.1605 16.9599C9.6965 14.3199 11.9365 10.9599 14.8325 9.5199L12.6085 6.3999C8.2405 8.4799 3.9365 13.2479 4.6725 19.2799C5.1365 23.0879 7.3445 25.5999 10.4645 25.5999C11.8245 25.5999 12.9605 25.1999 13.8565 24.3999C14.7525 23.5999 15.1845 22.5119 15.1845 21.1519ZM28.0645 21.1519C28.0645 19.9679 27.7445 18.9439 27.0885 18.1119C26.0805 16.8639 24.1605 16.7039 23.0405 16.9599C22.5765 14.3199 24.8165 10.9599 27.7125 9.5199L25.4885 6.3999C21.1205 8.4799 16.8325 13.2479 17.5685 19.2799C18.0325 23.0879 20.2245 25.5999 23.3445 25.5999C24.7045 25.5999 25.8405 25.1999 26.7365 24.3999C27.6325 23.5999 28.0645 22.5119 28.0645 21.1519Z" fill="#03AC0E"/>
</svg>
